<svg width="116" height="116" viewBox="0 0 116 116" fill="none" xmlns="http://www.w3.org/2000/svg">
<circle cx="58" cy="58" r="58" fill="#F3D915"/>
<g clip-path="url(#clip0)">
<path d="M76.1664 47.2202L68.8331 39.887C68.4956 39.5495 67.9484 39.5495 67.611 39.887L65.1666 42.3314C65.0045 42.4934 64.9135 42.7133 64.9135 42.9425C64.9135 43.1717 65.0045 43.3915 65.1666 43.5536L72.4999 50.8868C72.6686 51.0555 72.8899 51.14 73.111 51.14C73.3321 51.14 73.5534 51.0557 73.7221 50.8868L76.1664 48.4425C76.3286 48.2805 76.4196 48.0606 76.4196 47.8314C76.4196 47.6022 76.3285 47.3823 76.1664 47.2202ZM66.9998 42.9425L68.2221 41.7203L69.4444 42.9425L68.2221 44.1648L66.9998 42.9425ZM69.4442 45.3869L70.6665 44.1646L71.8888 45.3869L70.6665 46.6092L69.4442 45.3869ZM73.1109 49.0536L71.8886 47.8313L73.1109 46.609L74.3332 47.8313L73.1109 49.0536Z" fill="black"/>
<path d="M87.8517 35.9982C87.7401 35.7328 87.5038 35.5404 87.2214 35.485C86.9388 35.4294 86.6474 35.5184 86.4438 35.7219L77.9736 44.1921L71.8626 38.0811L80.3538 29.5898C80.5568 29.3869 80.6457 29.0965 80.5913 28.8148C80.5368 28.533 80.3461 28.2965 80.0822 28.1838C77.4217 27.0476 74.506 26.7231 71.6507 27.2451C68.7255 27.7799 66.0611 29.1751 63.9437 31.2815C63.9302 31.2949 63.9172 31.3089 63.9037 31.3224C63.9 31.3259 63.896 31.3291 63.8923 31.3326C63.8863 31.3386 63.8812 31.3452 63.8753 31.3513C61.1442 34.118 59.6408 37.7783 59.6412 41.6701L59.6406 47.8065L31.7721 75.6757C30.6294 76.8182 30 78.3374 30 79.9532C30 81.5691 30.6292 83.0883 31.7717 84.231C32.9512 85.4104 34.5002 86.0002 36.0495 86.0002C37.5987 86.0002 39.1478 85.4104 40.3272 84.2311L68.1448 56.4135L74.281 56.4129C78.2061 56.4128 81.8955 54.8847 84.6682 52.1119C86.7831 50.0081 88.1921 47.3522 88.7427 44.4313C89.2802 41.5801 88.9721 38.6639 87.8517 35.9982ZM78.1788 29.3206L70.6405 36.8589L65.7451 31.9634C69.1633 28.949 73.8569 27.9619 78.1788 29.3206ZM74.2823 54.6845C74.281 54.6845 67.7866 54.6851 67.7866 54.6851C67.5574 54.6851 67.3377 54.7763 67.1755 54.9383L39.105 83.0088C37.4203 84.6935 34.6787 84.6935 32.994 83.0088C32.1778 82.1926 31.7285 81.1074 31.7285 79.9532C31.7285 78.7989 32.178 77.714 32.9942 76.8978L61.116 48.7759C61.2781 48.6139 61.3692 48.3941 61.3692 48.1649L61.3699 41.6704C61.3696 38.5211 62.4849 35.5436 64.5272 33.1897L82.8162 51.4787C80.4527 53.5518 77.4551 54.6845 74.2823 54.6845ZM84.0399 50.2583L79.1959 45.4143L86.7066 37.9035C88.029 42.206 87.0336 46.8632 84.0399 50.2583Z" fill="black"/>
<path d="M37.883 78.1185C37.3932 77.6288 36.7422 77.3591 36.0495 77.3591C35.3569 77.3591 34.7057 77.6289 34.2162 78.1185C33.2053 79.1295 33.2053 80.7742 34.2162 81.7852C34.706 82.2749 35.357 82.5446 36.0495 82.5446C36.742 82.5446 37.3931 82.2749 37.883 81.7852C38.8937 80.7742 38.8937 79.1294 37.883 78.1185ZM36.6607 80.5629C36.4974 80.7262 36.2804 80.816 36.0495 80.816C35.8186 80.816 35.6016 80.7262 35.4383 80.5629C35.1013 80.2259 35.1013 79.6775 35.4383 79.3406C35.6016 79.1773 35.8186 79.0874 36.0495 79.0874C36.2804 79.0874 36.4974 79.1773 36.6606 79.3405C36.9976 79.6775 36.9976 80.2259 36.6607 80.5629Z" fill="black"/>
<path d="M63.4214 52.6081C62.4105 51.5972 60.7656 51.5971 59.7547 52.6081L49.9457 62.4171C49.6082 62.7546 49.6082 63.3018 49.9457 63.6392C50.2832 63.9768 50.8305 63.9768 51.1679 63.6392L60.9769 53.8303C61.3139 53.4934 61.8621 53.4933 62.1991 53.8303C62.5361 54.1672 62.5361 54.7156 62.1991 55.0526L40.9068 76.3448C40.731 76.1083 40.5375 75.8843 40.3272 75.674C40.1267 75.4735 39.9134 75.2881 39.6884 75.1187L48.7233 66.0837C49.0608 65.7462 49.0608 65.1989 48.7233 64.8615C48.3858 64.524 47.8385 64.524 47.5011 64.8615L37.6921 74.6705C37.4942 74.8685 37.4043 75.15 37.4512 75.4261C37.4981 75.7022 37.6755 75.9383 37.9277 76.06C38.3651 76.2711 38.7613 76.5524 39.105 76.8962C39.4581 77.2492 39.7447 77.656 39.9569 78.105C40.0771 78.3592 40.3134 78.539 40.5905 78.5872C40.6398 78.5957 40.6893 78.5999 40.7385 78.5999C40.9656 78.5999 41.186 78.5102 41.3496 78.3467L63.4216 56.2747C64.4324 55.264 64.4324 53.619 63.4214 52.6081Z" fill="black"/>
</g>
<defs>
<clipPath id="clip0">
<rect width="59" height="59" fill="white" transform="translate(30 27)"/>
</clipPath>
</defs>
</svg>
