<svg width="116" height="116" viewBox="0 0 116 116" fill="none" xmlns="http://www.w3.org/2000/svg">
<circle cx="58" cy="58" r="58" fill="#F3D915"/>
<g clip-path="url(#clip0)">
<path d="M81.0508 26.877H33.956C33.4412 26.877 33.024 27.2942 33.024 27.8089V53.9762C33.024 54.4909 33.4412 54.9081 33.956 54.9081C34.4703 54.9081 34.888 54.4909 34.888 53.9762V28.7409H80.1188V83.1052C80.1188 85.8112 77.9165 88.0131 75.2104 88.0131C72.5039 88.0131 70.302 85.8112 70.302 83.1052C70.302 82.5904 69.8848 82.1732 69.37 82.1732H56.6125C56.0982 82.1732 55.6805 82.5904 55.6805 83.1052C55.6805 83.6195 56.0982 84.0367 56.6125 84.0367H68.5019C68.7173 85.5925 69.4628 86.9807 70.55 88.0131H33.956C31.5676 88.0131 29.5729 86.2996 29.1365 84.0367H52.2689C52.7832 84.0367 53.2008 83.6195 53.2008 83.1052C53.2008 82.5904 52.7832 82.1732 52.2689 82.1732H34.813L34.8875 58.2766C34.8894 57.7618 34.4732 57.3431 33.9584 57.3417C33.9574 57.3417 33.9565 57.3417 33.9555 57.3417C33.4422 57.3417 33.0254 57.757 33.024 58.2703L32.949 82.1727H28.1156C27.6008 82.1727 27.1836 82.5899 27.1836 83.1047C27.1836 86.8389 30.2218 89.8771 33.9555 89.8771H75.2099C78.9446 89.8771 81.9823 86.8389 81.9823 83.1047V27.8089C81.9823 27.2942 81.5651 26.877 81.0508 26.877V26.877Z" fill="black"/>
<path d="M70.364 34.7054C68.4798 34.7054 66.947 36.2382 66.947 38.1223V41.6018C66.947 42.1165 67.3642 42.5337 67.879 42.5337C68.3938 42.5337 68.811 42.1165 68.811 41.6018V40.0488H71.9175V41.6018C71.9175 42.1165 72.3347 42.5337 72.8494 42.5337C73.3642 42.5337 73.7814 42.1165 73.7814 41.6018V38.1228C73.7814 36.2382 72.2486 34.7054 70.364 34.7054V34.7054ZM68.811 38.1848V38.1223C68.811 37.2658 69.5075 36.5693 70.364 36.5693C71.2205 36.5693 71.9175 37.2663 71.9175 38.1223V38.1848H68.811Z" fill="black"/>
<path d="M70.364 30.7289C66.0132 30.7289 62.4736 34.2689 62.4736 38.6198C62.4736 42.9702 66.0132 46.5102 70.364 46.5102C74.7149 46.5102 78.2544 42.9702 78.2544 38.6198C78.2544 34.2689 74.7149 30.7289 70.364 30.7289ZM70.364 44.6462C67.0408 44.6462 64.3376 41.9425 64.3376 38.6198C64.3376 35.2966 67.0408 32.5929 70.364 32.5929C73.6872 32.5929 76.3909 35.2966 76.3909 38.6198C76.3909 41.9425 73.6872 44.6462 70.364 44.6462V44.6462Z" fill="black"/>
<path d="M37.808 34.4568H44.7664C45.2812 34.4568 45.6984 34.0396 45.6984 33.5249C45.6984 33.0101 45.2812 32.5929 44.7664 32.5929H37.808C37.2932 32.5929 36.876 33.0101 36.876 33.5249C36.876 34.0396 37.2932 34.4568 37.808 34.4568Z" fill="black"/>
<path d="M37.808 38.4333H49.7368C50.2516 38.4333 50.6688 38.0161 50.6688 37.5013C50.6688 36.9865 50.2516 36.5693 49.7368 36.5693H37.808C37.2932 36.5693 36.876 36.9865 36.876 37.5013C36.876 38.0161 37.2932 38.4333 37.808 38.4333Z" fill="black"/>
<path d="M37.808 42.2852H49.7368C50.2516 42.2852 50.6688 41.868 50.6688 41.3533C50.6688 40.8385 50.2516 40.4213 49.7368 40.4213H37.808C37.2932 40.4213 36.876 40.8385 36.876 41.3533C36.876 41.868 37.2932 42.2852 37.808 42.2852Z" fill="black"/>
<path d="M37.808 56.6995H63.4056C63.9204 56.6995 64.3376 56.2823 64.3376 55.7676C64.3376 55.2528 63.9204 54.8356 63.4056 54.8356H37.808C37.2932 54.8356 36.876 55.2528 36.876 55.7676C36.876 56.2823 37.2932 56.6995 37.808 56.6995Z" fill="black"/>
<path d="M37.808 60.9245H54.7072C55.222 60.9245 55.6392 60.5073 55.6392 59.9925C55.6392 59.4778 55.222 59.0605 54.7072 59.0605H37.808C37.2932 59.0605 36.876 59.4778 36.876 59.9925C36.876 60.5073 37.2932 60.9245 37.808 60.9245Z" fill="black"/>
<path d="M77.8477 55.099C77.4786 54.7404 76.8883 54.749 76.5298 55.1187L73.1094 58.6423L71.9141 57.3667C71.5617 56.9913 70.972 56.9725 70.5966 57.3244C70.2212 57.6762 70.202 58.266 70.5538 58.6418L72.4178 60.6298C72.5923 60.8158 72.835 60.9221 73.0897 60.9245H73.0979C73.3498 60.9245 73.5911 60.8221 73.7665 60.6414L77.8674 56.4164C78.2255 56.0473 78.2169 55.457 77.8477 55.099V55.099Z" fill="black"/>
<path d="M37.808 65.7704H63.4056C63.9204 65.7704 64.3376 65.3532 64.3376 64.8384C64.3376 64.3236 63.9204 63.9064 63.4056 63.9064H37.808C37.2932 63.9064 36.876 64.3236 36.876 64.8384C36.876 65.3532 37.2932 65.7704 37.808 65.7704Z" fill="black"/>
<path d="M37.808 69.9954H54.7072C55.222 69.9954 55.6392 69.5782 55.6392 69.0634C55.6392 68.5486 55.222 68.1314 54.7072 68.1314H37.808C37.2932 68.1314 36.876 68.5486 36.876 69.0634C36.876 69.5782 37.2932 69.9954 37.808 69.9954Z" fill="black"/>
<path d="M77.8477 64.1698C77.4786 63.8112 76.8883 63.8199 76.5298 64.1895L73.1094 67.7132L71.9141 66.438C71.5617 66.0626 70.972 66.0434 70.5966 66.3952C70.2212 66.7476 70.202 67.3373 70.5538 67.7127L72.4178 69.7007C72.5923 69.8867 72.835 69.9934 73.0897 69.9953H73.0979C73.3498 69.9953 73.5911 69.8934 73.7665 69.7122L77.8674 65.4878C78.2255 65.1181 78.2169 64.5284 77.8477 64.1698V64.1698Z" fill="black"/>
<path d="M37.808 74.8418H63.4056C63.9204 74.8418 64.3376 74.4241 64.3376 73.9098C64.3376 73.395 63.9204 72.9778 63.4056 72.9778H37.808C37.2932 72.9778 36.876 73.395 36.876 73.9098C36.876 74.4241 37.2932 74.8418 37.808 74.8418Z" fill="black"/>
<path d="M37.808 79.0662H54.7072C55.222 79.0662 55.6392 78.649 55.6392 78.1342C55.6392 77.62 55.222 77.2023 54.7072 77.2023H37.808C37.2932 77.2023 36.876 77.62 36.876 78.1342C36.876 78.649 37.2932 79.0662 37.808 79.0662Z" fill="black"/>
<path d="M76.5298 73.2604L73.1094 76.7845L71.9141 75.5089C71.5617 75.1335 70.972 75.1143 70.5966 75.4666C70.2212 75.8184 70.202 76.4082 70.5538 76.7836L72.4178 78.772C72.5923 78.958 72.835 79.0643 73.0897 79.0662H73.0979C73.3498 79.0662 73.5911 78.9643 73.7665 78.7836L77.8674 74.5586C78.2255 74.1895 78.2169 73.5992 77.8477 73.2407C77.4786 72.8826 76.8883 72.8908 76.5298 73.2604V73.2604Z" fill="black"/>
</g>
<defs>
<clipPath id="clip0">
<rect width="63" height="63" fill="white" transform="translate(23 27)"/>
</clipPath>
</defs>
</svg>
