<svg width="116" height="116" viewBox="0 0 116 116" fill="none" xmlns="http://www.w3.org/2000/svg">
<circle cx="58" cy="58" r="58" fill="#F3D915"/>
<path d="M69.1328 75.9609C67.2913 75.9609 65.793 77.4593 65.793 79.3008C65.793 81.1423 67.2913 82.6406 69.1328 82.6406C70.9743 82.6406 72.4727 81.1423 72.4727 79.3008C72.4727 77.4593 70.9743 75.9609 69.1328 75.9609ZM69.1328 80.4141C68.5189 80.4141 68.0195 79.9147 68.0195 79.3008C68.0195 78.6868 68.5189 78.1875 69.1328 78.1875C69.7468 78.1875 70.2461 78.6868 70.2461 79.3008C70.2461 79.9147 69.7468 80.4141 69.1328 80.4141Z" fill="black"/>
<path d="M46.8672 75.9609C45.0257 75.9609 43.5273 77.4593 43.5273 79.3008C43.5273 81.1423 45.0257 82.6406 46.8672 82.6406C48.7087 82.6406 50.207 81.1423 50.207 79.3008C50.207 77.4593 48.7087 75.9609 46.8672 75.9609ZM46.8672 80.4141C46.2532 80.4141 45.7539 79.9147 45.7539 79.3008C45.7539 78.6868 46.2532 78.1875 46.8672 78.1875C47.4811 78.1875 47.9805 78.6868 47.9805 79.3008C47.9805 79.9147 47.4811 80.4141 46.8672 80.4141Z" fill="black"/>
<path d="M62.4531 75.9609H53.5469C52.9319 75.9609 52.4336 76.4592 52.4336 77.0742V81.5273C52.4336 82.1423 52.9319 82.6406 53.5469 82.6406H62.4531C63.0681 82.6406 63.5664 82.1423 63.5664 81.5273V77.0742C63.5664 76.4592 63.0681 75.9609 62.4531 75.9609ZM61.3398 80.4141H54.6602V78.1875H61.3398V80.4141Z" fill="black"/>
<path d="M83.5998 21.0031C83.5983 20.988 83.5955 20.9735 83.5934 20.9586C83.5905 20.9375 83.588 20.9165 83.5838 20.8955C83.5802 20.8777 83.5753 20.8605 83.571 20.8431C83.5666 20.8253 83.5627 20.8075 83.5574 20.79C83.5522 20.7726 83.5456 20.7558 83.5396 20.7389C83.5333 20.7217 83.5277 20.7042 83.5207 20.6873C83.5142 20.6714 83.5063 20.6561 83.499 20.6405C83.4909 20.6231 83.4832 20.6056 83.474 20.5886C83.4661 20.5739 83.457 20.5599 83.4486 20.5457C83.4385 20.5287 83.429 20.5117 83.4178 20.4952C83.4076 20.4798 83.396 20.4654 83.385 20.4505C83.3744 20.4363 83.3644 20.4216 83.353 20.4076C83.3335 20.3839 83.3126 20.3613 83.2912 20.3393C83.2871 20.335 83.2837 20.3304 83.2795 20.3263C83.2755 20.3223 83.2712 20.319 83.2672 20.3151C83.2449 20.2935 83.2221 20.2724 83.198 20.2526C83.1851 20.242 83.1714 20.2328 83.1581 20.2228C83.1423 20.2109 83.1268 20.1988 83.1104 20.1878C83.095 20.1775 83.0793 20.1686 83.0635 20.1593C83.0481 20.1499 83.0328 20.1403 83.0168 20.1317C83.0012 20.1234 82.9853 20.1164 82.9694 20.1088C82.9523 20.1006 82.9354 20.0922 82.9178 20.0849C82.9028 20.0787 82.8873 20.0738 82.8722 20.0683C82.8532 20.0613 82.8343 20.0542 82.8149 20.0482C82.8 20.0438 82.7849 20.0405 82.7699 20.0367C82.7497 20.0315 82.7297 20.0258 82.7091 20.0218C82.6926 20.0186 82.6761 20.0168 82.6595 20.0143C82.6402 20.0113 82.621 20.0079 82.6013 20.0059C82.5738 20.0033 82.5462 20.0024 82.5188 20.0018C82.5097 20.0012 82.5011 20 82.4922 20H33.5078C33.4989 20 33.4903 20.0012 33.4814 20.0013C33.4538 20.0019 33.4263 20.0028 33.3987 20.0055C33.379 20.0074 33.36 20.011 33.3405 20.0138C33.324 20.0163 33.3074 20.0181 33.2909 20.0214C33.2703 20.0254 33.2503 20.031 33.2301 20.0362C33.2151 20.0401 33.2 20.0433 33.1851 20.0478C33.1657 20.0537 33.147 20.0609 33.128 20.0678C33.1127 20.0733 33.0972 20.0784 33.0822 20.0846C33.0647 20.0919 33.0478 20.1003 33.0307 20.1085C33.0149 20.1161 32.9988 20.1231 32.9832 20.1314C32.9672 20.14 32.9521 20.1496 32.9365 20.159C32.9207 20.1683 32.9049 20.1772 32.8896 20.1875C32.8731 20.1985 32.8577 20.2106 32.8419 20.2225C32.8286 20.2325 32.8149 20.2418 32.802 20.2523C32.7779 20.2721 32.7551 20.2932 32.7328 20.3148C32.7288 20.3187 32.7245 20.322 32.7205 20.326C32.7163 20.3301 32.7128 20.3347 32.7088 20.339C32.6874 20.361 32.6665 20.3836 32.647 20.4073C32.6356 20.4213 32.6256 20.4358 32.615 20.4502C32.604 20.4651 32.5924 20.4795 32.5822 20.4949C32.5712 20.5114 32.5615 20.5284 32.5514 20.5454C32.543 20.5596 32.5341 20.5736 32.5262 20.5883C32.517 20.6053 32.5093 20.623 32.501 20.6405C32.4937 20.6559 32.486 20.6711 32.4794 20.687C32.4723 20.704 32.4665 20.7216 32.4604 20.7389C32.4544 20.7558 32.448 20.7725 32.4426 20.7897C32.4373 20.8072 32.4334 20.825 32.429 20.8428C32.4247 20.8603 32.4196 20.8776 32.4162 20.8952C32.412 20.9162 32.4095 20.9372 32.4066 20.9583C32.4045 20.9732 32.4017 20.9879 32.4002 21.0028C32.3965 21.04 32.3945 21.0771 32.3945 21.114V88.207C32.3945 88.822 32.8928 89.3203 33.5078 89.3203H43.5273V92.6602C43.5273 94.5017 45.0257 96 46.8672 96C48.7087 96 50.207 94.5017 50.207 92.6602V89.3203H65.793V92.6602C65.793 94.5017 67.2913 96 69.1328 96C70.9743 96 72.4727 94.5017 72.4727 92.6602V89.3203H82.4922C83.1072 89.3203 83.6055 88.822 83.6055 88.207V21.114C83.6055 21.0771 83.6035 21.04 83.5998 21.0031ZM34.6211 23.9909C38.9467 29.2242 41.3008 35.7384 41.3008 42.6149C41.3008 43.2299 41.7991 43.7282 42.4141 43.7282C43.029 43.7282 43.5273 43.2299 43.5273 42.6149C43.5273 35.062 40.8872 27.9159 36.0464 22.2266H79.9538C75.1128 27.9157 72.4727 35.062 72.4727 42.6149V69.2812H43.5273V47.068C43.5273 46.453 43.029 45.9547 42.4141 45.9547C41.7991 45.9547 41.3008 46.453 41.3008 47.068V69.2812H34.6211V23.9909ZM47.9805 92.6602C47.9805 93.2741 47.4811 93.7734 46.8672 93.7734C46.2533 93.7734 45.7539 93.2741 45.7539 92.6602V89.3203H47.9805V92.6602ZM70.2461 92.6602C70.2461 93.2741 69.7467 93.7734 69.1328 93.7734C68.5189 93.7734 68.0195 93.2741 68.0195 92.6602V89.3203H70.2461V92.6602ZM81.3789 87.0938H34.6211V71.5078H81.3789V87.0938ZM81.3789 69.2812H74.6992V42.6149C74.6992 35.7384 77.0533 29.2242 81.3789 23.9909V69.2812Z" fill="black"/>
</svg>
