<svg width="116" height="116" viewBox="0 0 116 116" fill="none" xmlns="http://www.w3.org/2000/svg">
<circle cx="58" cy="58" r="58" fill="#F3D915"/>
<path d="M90.9893 49.6592H90.6523V42.584C90.6523 39.7973 88.3853 37.5303 85.5986 37.5303H82.5664V37.1934C82.5664 36.6352 82.1139 36.1826 81.5557 36.1826H73.4697C73.2017 36.1826 72.9445 36.2891 72.7551 36.4787C72.5654 36.6682 72.459 36.9253 72.459 37.1934V37.5303H68.9214V28.4336C68.9214 27.8754 68.4688 27.4229 67.9106 27.4229H47.6958C47.1376 27.4229 46.6851 27.8754 46.6851 28.4336V37.5303H42.541V37.1934C42.541 36.9253 42.4345 36.6682 42.2449 36.4787C42.0555 36.2891 41.7983 36.1826 41.5303 36.1826H33.4443C32.8861 36.1826 32.4336 36.6352 32.4336 37.1934V37.5303H29.4014C26.6147 37.5303 24.3477 39.7973 24.3477 42.584V49.6592H24.0107C23.4525 49.6592 23 50.1117 23 50.6699C23 51.2281 23.4525 51.6807 24.0107 51.6807H24.3477V74.5234C24.3477 77.3101 26.6147 79.5771 29.4014 79.5771H85.5986C88.3853 79.5771 90.6523 77.3101 90.6523 74.5234V51.6807H90.9893C91.5475 51.6807 92 51.2281 92 50.6699C92 50.1117 91.5475 49.6592 90.9893 49.6592ZM74.4805 38.2041H80.5449V40.2256H74.4805V38.2041ZM74.4805 42.2471H80.5449V49.6592H74.4805V42.2471ZM48.7065 29.4443H66.8999V31.4658H48.7065V29.4443ZM48.7065 33.4873H66.8999V37.5303H48.7065V33.4873ZM42.541 41.2367C42.541 41.2359 42.541 39.5518 42.541 39.5518H72.459V41.2359C72.459 41.2367 72.459 49.6592 72.459 49.6592H64.5752V46.627C64.5752 46.0688 64.1227 45.6162 63.5645 45.6162H51.4355C50.8773 45.6162 50.4248 46.0688 50.4248 46.627V49.6592H42.541V41.2367ZM52.4463 49.6592V47.6377H62.5537V49.6592H52.4463ZM62.5537 51.6807V61.7881H52.4463V51.6807H62.5537ZM34.4551 38.2041H40.5195V40.2256H34.4551V38.2041ZM34.4551 42.2471H40.5195V49.6592H34.4551V42.2471ZM26.3691 42.584C26.3691 40.9119 27.7293 39.5518 29.4014 39.5518H32.4336V41.2354C32.4336 41.2373 32.4336 49.6592 32.4336 49.6592H26.3691V42.584ZM88.6309 74.5234C88.6309 76.1955 87.2707 77.5557 85.5986 77.5557H82.5664V54.7129C82.5664 54.1547 82.1139 53.7021 81.5557 53.7021C80.9975 53.7021 80.5449 54.1547 80.5449 54.7129V77.5557H74.4805V54.7129C74.4805 54.1547 74.0279 53.7021 73.4697 53.7021C72.9115 53.7021 72.459 54.1547 72.459 54.7129V77.5557H42.541V54.7129C42.541 54.1547 42.0885 53.7021 41.5303 53.7021C40.9721 53.7021 40.5195 54.1547 40.5195 54.7129V77.5557H34.4551V54.7129C34.4551 54.1547 34.0025 53.7021 33.4443 53.7021C32.8861 53.7021 32.4336 54.1547 32.4336 54.7129V77.5557H29.4014C27.7293 77.5557 26.3691 76.1955 26.3691 74.5234V51.6807H50.4248V62.7988C50.4248 63.357 50.8773 63.8096 51.4355 63.8096H63.5645C64.1227 63.8096 64.5752 63.357 64.5752 62.7988V51.6807H88.6309V74.5234ZM88.6309 49.6592H82.5664V41.2373C82.5664 41.2354 82.5664 39.5518 82.5664 39.5518H85.5986C87.2707 39.5518 88.6309 40.9119 88.6309 42.584V49.6592Z" fill="black"/>
<path d="M59.5215 57.7451H55.4785C54.9203 57.7451 54.4678 58.1977 54.4678 58.7559C54.4678 59.3141 54.9203 59.7666 55.4785 59.7666H59.5215C60.0797 59.7666 60.5322 59.3141 60.5322 58.7559C60.5322 58.1977 60.0797 57.7451 59.5215 57.7451Z" fill="black"/>
</svg>
