<svg width="257" height="50" viewBox="0 0 257 50" fill="none" xmlns="http://www.w3.org/2000/svg">
<rect y="11" width="88" height="26" fill="#F3D915"/>
<path d="M9 32V16.5879H27.4945L30.5769 19.6703V28.9176L27.4945 32H9ZM12.0824 22.7527H27.4945V19.6703H12.0824V22.7527ZM12.0824 28.9176H27.4945V25.8352H12.0824V28.9176ZM44.4418 22.7527H55.2302V32H33.6533V16.5879H55.2302V19.6703H36.7357V28.9176H52.1478V25.8352H44.4418V22.7527ZM58.3066 16.5879H79.8836V19.6703H70.6363V32H67.5539V19.6703H58.3066V16.5879Z" fill="black"/>
<line x1="102.75" y1="3.27835e-08" x2="102.75" y2="50" stroke="#444444" stroke-width="1.5"/>
<path d="M125.382 14.837C125.382 15.2237 125.251 15.475 124.99 15.591C124.739 15.707 124.284 15.765 123.627 15.765H118.9V13.8655H123.627C124.255 13.8655 124.705 13.9332 124.976 14.0685C125.246 14.1942 125.382 14.4503 125.382 14.837ZM118.9 19.6945V17.8965H124.178C124.874 17.9642 125.261 18.0077 125.338 18.027C125.715 18.143 125.904 18.3943 125.904 18.781C125.904 19.0807 125.792 19.3078 125.57 19.4625C125.357 19.6172 124.884 19.6945 124.149 19.6945H118.9ZM125.889 22C126.691 22 127.363 21.8115 127.905 21.4345C128.504 21.0188 128.804 20.463 128.804 19.767V18.5055C128.804 17.8385 128.277 17.2295 127.223 16.6785C127.658 16.5335 127.953 16.2822 128.108 15.9245C128.224 15.6635 128.282 15.2817 128.282 14.779V13.8655C128.282 13.2082 128.001 12.662 127.441 12.227C126.89 11.7823 126.179 11.56 125.309 11.56H116V22H125.889ZM140.833 15.04V15.591C140.833 15.91 140.674 16.1855 140.355 16.4175C140.036 16.6495 139.635 16.7655 139.151 16.7655H133.018V13.8655H139.151C139.586 13.8655 139.973 13.9863 140.311 14.228C140.659 14.4697 140.833 14.7403 140.833 15.04ZM143.733 19.477C143.733 19.1097 143.564 18.8197 143.226 18.607C143.071 18.5103 142.839 18.3895 142.53 18.2445C142.907 18.0318 143.206 17.7612 143.429 17.4325C143.651 17.0942 143.762 16.7317 143.762 16.345V13.909C143.762 13.2517 143.482 12.6958 142.921 12.2415C142.361 11.7872 141.66 11.56 140.819 11.56H130.118V22H133.018V19.071H139.108C139.726 19.071 140.171 19.1628 140.442 19.3465C140.674 19.5012 140.79 19.7428 140.79 20.0715V22H143.733V19.477ZM145.113 11.531V21.971H148.013V11.531H145.113ZM159.312 15.794H153.121C152.831 15.794 152.594 15.7312 152.41 15.6055C152.188 15.4508 152.077 15.2043 152.077 14.866C152.077 14.5083 152.168 14.257 152.352 14.112C152.545 13.967 152.802 13.8945 153.121 13.8945H158.094C158.548 13.8945 158.925 14.0057 159.225 14.228C159.525 14.4503 159.675 14.721 159.675 15.04H162.401V13.8945C162.401 13.2275 162.144 12.6717 161.632 12.227C161.129 11.7823 160.448 11.56 159.588 11.56H152.135C151.352 11.56 150.665 11.7823 150.076 12.227C149.496 12.6717 149.206 13.2275 149.206 13.8945V15.04C149.206 16.0357 149.486 16.7607 150.047 17.215C150.53 17.6017 151.226 17.795 152.135 17.795H158.515C158.814 17.795 159.056 17.8868 159.24 18.0705C159.423 18.2542 159.515 18.491 159.515 18.781C159.515 19.3707 159.182 19.6655 158.515 19.6655H153.628C153.222 19.6655 152.864 19.5592 152.555 19.3465C152.255 19.1242 152.106 18.8535 152.106 18.5345V18.3315H149.206V19.6655C149.206 20.3228 149.481 20.8787 150.032 21.333C150.593 21.7777 151.284 22 152.106 22H159.501C160.371 22 161.071 21.7825 161.603 21.3475C162.135 20.9125 162.401 20.3518 162.401 19.6655V18.1285C162.401 17.4325 162.106 16.8718 161.516 16.4465C160.936 16.0115 160.201 15.794 159.312 15.794ZM163.706 11.56V13.8655H168.737V22H171.434V13.8655H176.466V11.56H163.706ZM189.433 15.04V18.5055C189.433 18.8245 189.273 19.1048 188.954 19.3465C188.635 19.5785 188.239 19.6945 187.765 19.6945H182.632C182.139 19.6945 181.729 19.5882 181.4 19.3755C181.081 19.1628 180.921 18.8728 180.921 18.5055V15.069C180.921 14.779 181.095 14.5083 181.443 14.257C181.791 13.996 182.197 13.8655 182.661 13.8655H187.765C188.2 13.8655 188.587 13.9863 188.925 14.228C189.264 14.4697 189.433 14.7403 189.433 15.04ZM192.362 15.069V13.909C192.362 13.242 192.082 12.6862 191.521 12.2415C190.97 11.7872 190.269 11.56 189.418 11.56H180.878C180.114 11.56 179.447 11.7968 178.877 12.2705C178.307 12.7442 178.021 13.2758 178.021 13.8655V19.6945C178.021 20.3422 178.297 20.8883 178.848 21.333C179.399 21.7777 180.09 22 180.921 22H189.433C190.206 22 190.888 21.7825 191.477 21.3475C192.067 20.9028 192.362 20.3518 192.362 19.6945V15.069ZM193.739 11.56V22H203.599V19.6945H196.639V11.56H193.739Z" fill="#277DCD"/>
<path d="M214.013 11.589C213.249 11.589 212.582 11.8258 212.012 12.2995C211.441 12.7732 211.156 13.3048 211.156 13.8945V19.709C211.156 20.3567 211.432 20.9077 211.983 21.362C212.543 21.8067 213.235 22.029 214.056 22.029H221.016C221.78 22.029 222.457 21.8067 223.046 21.362C223.646 20.9173 223.945 20.3663 223.945 19.709V16.4465H217.522V18.5345H221.06C221.06 18.8632 220.891 19.1435 220.552 19.3755C220.224 19.5978 219.808 19.709 219.305 19.709H215.767C215.284 19.709 214.878 19.6075 214.549 19.4045C214.221 19.1918 214.056 18.9018 214.056 18.5345V15.0835C214.056 14.7838 214.225 14.5132 214.564 14.2715C214.912 14.0202 215.323 13.8945 215.796 13.8945H219.305C219.75 13.8945 220.151 14.0153 220.509 14.257C220.876 14.4987 221.06 14.7693 221.06 15.069H223.945V13.938C223.945 13.271 223.66 12.7152 223.09 12.2705C222.529 11.8162 221.823 11.589 220.973 11.589H214.013ZM229.451 20.3905H236.599L237.484 22H240.935L235.164 11.589H230.712L225.217 22H228.523L229.451 20.3905ZM235.236 17.8965H230.785L233.047 13.851L235.236 17.8965ZM251.82 15.794H245.629C245.339 15.794 245.102 15.7312 244.918 15.6055C244.696 15.4508 244.585 15.2043 244.585 14.866C244.585 14.5083 244.677 14.257 244.86 14.112C245.054 13.967 245.31 13.8945 245.629 13.8945H250.602C251.057 13.8945 251.434 14.0057 251.733 14.228C252.033 14.4503 252.183 14.721 252.183 15.04H254.909V13.8945C254.909 13.2275 254.653 12.6717 254.14 12.227C253.638 11.7823 252.956 11.56 252.096 11.56H244.643C243.86 11.56 243.174 11.7823 242.584 12.227C242.004 12.6717 241.714 13.2275 241.714 13.8945V15.04C241.714 16.0357 241.994 16.7607 242.555 17.215C243.038 17.6017 243.734 17.795 244.643 17.795H251.023C251.323 17.795 251.564 17.8868 251.748 18.0705C251.932 18.2542 252.023 18.491 252.023 18.781C252.023 19.3707 251.69 19.6655 251.023 19.6655H246.136C245.73 19.6655 245.373 19.5592 245.063 19.3465C244.764 19.1242 244.614 18.8535 244.614 18.5345V18.3315H241.714V19.6655C241.714 20.3228 241.989 20.8787 242.54 21.333C243.101 21.7777 243.792 22 244.614 22H252.009C252.879 22 253.58 21.7825 254.111 21.3475C254.643 20.9125 254.909 20.3518 254.909 19.6655V18.1285C254.909 17.4325 254.614 16.8718 254.024 16.4465C253.444 16.0115 252.71 15.794 251.82 15.794ZM116 26.56V28.8655H121.032V37H123.729V28.8655H128.76V26.56H116ZM141.031 30.04V30.591C141.031 30.91 140.872 31.1855 140.553 31.4175C140.234 31.6495 139.833 31.7655 139.349 31.7655H133.216V28.8655H139.349C139.784 28.8655 140.171 28.9863 140.509 29.228C140.857 29.4697 141.031 29.7403 141.031 30.04ZM143.931 34.477C143.931 34.1097 143.762 33.8197 143.424 33.607C143.269 33.5103 143.037 33.3895 142.728 33.2445C143.105 33.0318 143.405 32.7612 143.627 32.4325C143.849 32.0942 143.96 31.7317 143.96 31.345V28.909C143.96 28.2517 143.68 27.6958 143.119 27.2415C142.559 26.7872 141.858 26.56 141.017 26.56H130.316V37H133.216V34.071H139.306C139.925 34.071 140.369 34.1628 140.64 34.3465C140.872 34.5012 140.988 34.7428 140.988 35.0715V37H143.931V34.477ZM149.517 35.3905H156.665L157.55 37H161.001L155.23 26.589H150.778L145.283 37H148.589L149.517 35.3905ZM155.302 32.8965H150.851L153.113 28.851L155.302 32.8965ZM161.78 26.531V36.971H164.68V26.531H161.78ZM177.385 34.506C177.346 34.5833 177.269 34.622 177.153 34.622C177.105 34.622 177.066 34.6123 177.037 34.593L171.295 26.56H165.872V37H168.772V29.1555C168.878 29.0298 168.975 28.967 169.062 28.967C169.101 28.967 169.178 28.9912 169.294 29.0395L175.167 37H180.401V26.56H177.385V34.506ZM181.731 26.531V36.971H184.631V26.531H181.731ZM197.337 34.506C197.298 34.5833 197.221 34.622 197.105 34.622C197.056 34.622 197.018 34.6123 196.989 34.593L191.247 26.56H185.824V37H188.724V29.1555C188.83 29.0298 188.927 28.967 189.014 28.967C189.052 28.967 189.13 28.9912 189.246 29.0395L195.118 37H200.353V26.56H197.337V34.506ZM204.54 26.589C203.776 26.589 203.109 26.8258 202.539 27.2995C201.968 27.7732 201.683 28.3048 201.683 28.8945V34.709C201.683 35.3567 201.959 35.9077 202.51 36.362C203.07 36.8067 203.761 37.029 204.583 37.029H211.543C212.307 37.029 212.983 36.8067 213.573 36.362C214.172 35.9173 214.472 35.3663 214.472 34.709V31.4465H208.049V33.5345H211.587C211.587 33.8632 211.417 34.1435 211.079 34.3755C210.75 34.5978 210.335 34.709 209.832 34.709H206.294C205.811 34.709 205.405 34.6075 205.076 34.4045C204.747 34.1918 204.583 33.9018 204.583 33.5345V30.0835C204.583 29.7838 204.752 29.5132 205.091 29.2715C205.439 29.0202 205.849 28.8945 206.323 28.8945H209.832C210.277 28.8945 210.678 29.0153 211.036 29.257C211.403 29.4987 211.587 29.7693 211.587 30.069H214.472V28.938C214.472 28.271 214.187 27.7152 213.617 27.2705C213.056 26.8162 212.35 26.589 211.5 26.589H204.54Z" fill="#444444"/>
</svg>
